HIERARCHY
ROOT hip
{
  OFFSET 0 0 0
  CHANNELS 6 Xposition Yposition Zposition Zrotation Yrotation Xrotation
  JOINT abdomen
  {
    OFFSET 0 20.6881 -0.73152
    CHANNELS 3 Zrotation Xrotation Yrotation
    JOINT chest
    {
      OFFSET 0 11.7043 -0.48768
      CHANNELS 3 Zrotation Xrotation Yrotation
      JOINT neck
      {
        OFFSET 0 22.1894 -2.19456
        CHANNELS 3 Zrotation Xrotation Yrotation
        JOINT head
        {
          OFFSET -0.24384 7.07133 1.2192
          CHANNELS 3 Zrotation Xrotation Yrotation
          JOINT leftEye
          {
            OFFSET 4.14528 8.04674 8.04672
            CHANNELS 3 Zrotation Xrotation Yrotation
            End Site
            {
              OFFSET 1 0 0
            }
          }
          JOINT rightEye
          {
            OFFSET -3.6576 8.04674 8.04672
            CHANNELS 3 Zrotation Xrotation Yrotation
            End Site
            {
              OFFSET 1 0 0
            }
          }
        }
      }
      JOINT rCollar
      {
        OFFSET -2.68224 19.2634 -4.8768
        CHANNELS 3 Zrotation Xrotation Yrotation
        JOINT rShldr
        {
          OFFSET -8.77824 -1.95073 1.46304
          CHANNELS 3 Zrotation Xrotation Yrotation
          JOINT rForeArm
          {
            OFFSET -28.1742 -1.7115 0.48768
            CHANNELS 3 Zrotation Xrotation Yrotation
            JOINT rHand
            {
              OFFSET -22.5879 0.773209 7.07136
              CHANNELS 3 Zrotation Xrotation Yrotation
              JOINT rThumb1
              {
                OFFSET -1.2192 -0.487915 3.41376
                CHANNELS 3 Zrotation Xrotation Yrotation
                JOINT rThumb2
                {
                  OFFSET -3.37035 -0.52449 3.41376
                  CHANNELS 3 Zrotation Xrotation Yrotation
                  End Site
                  {
                    OFFSET -1.78271 -1.18214 1.43049
                  }
                }
              }
              JOINT rIndex1
              {
                OFFSET -7.75947 0.938293 5.60832
                CHANNELS 3 Zrotation Xrotation Yrotation
                JOINT rIndex2
                {
                  OFFSET -2.54057 -0.884171 1.56538
                  CHANNELS 3 Zrotation Xrotation Yrotation
                  End Site
                  {
                    OFFSET -1.62519 -0.234802 1.16502
                  }
                }
              }
              JOINT rMid1
              {
                OFFSET -8.24714 1.18213 3.41376
                CHANNELS 3 Zrotation Xrotation Yrotation
                JOINT rMid2
                {
                  OFFSET -3.10165 -0.590103 1.0647
                  CHANNELS 3 Zrotation Xrotation Yrotation
                  End Site
                  {
                    OFFSET -2.48547 -0.328903 0.83742
                  }
                }
              }
              JOINT rRing1
              {
                OFFSET -8.82822 0.546677 1.51678
                CHANNELS 3 Zrotation Xrotation Yrotation
                JOINT rRing2
                {
                  OFFSET -2.60934 -0.819778 -0.0198488
                  CHANNELS 3 Zrotation Xrotation Yrotation
                  End Site
                  {
                    OFFSET -2.33842 -0.294052 0.168128
                  }
                }
              }
              JOINT rPinky1
              {
                OFFSET -8.27202 -0.0477905 -0.4584
                CHANNELS 3 Zrotation Xrotation Yrotation
                JOINT rPinky2
                {
                  OFFSET -1.82734 -0.647385 -0.700984
                  CHANNELS 3 Zrotation Xrotation Yrotation
                  End Site
                  {
                    OFFSET -1.69225 -0.51767 -0.607171
                  }
                }
              }
            }
          }
        }
      }
      JOINT lCollar
      {
        OFFSET 2.68224 19.2634 -4.8768
        CHANNELS 3 Zrotation Xrotation Yrotation
        JOINT lShldr
        {
          OFFSET 8.77824 -1.95073 1.46304
          CHANNELS 3 Zrotation Xrotation Yrotation
          JOINT lForeArm
          {
            OFFSET 28.1742 -1.7115 0.48768
            CHANNELS 3 Zrotation Xrotation Yrotation
            JOINT lHand
            {
              OFFSET 22.5879 0.773209 7.07136
              CHANNELS 3 Zrotation Xrotation Yrotation
              JOINT lThumb1
              {
                OFFSET 1.2192 -0.487915 3.41376
                CHANNELS 3 Zrotation Xrotation Yrotation
                JOINT lThumb2
                {
                  OFFSET 3.37035 -0.52449 3.41376
                  CHANNELS 3 Zrotation Xrotation Yrotation
                  End Site
                  {
                    OFFSET 1.78271 -1.18214 1.43049
                  }
                }
              }
              JOINT lIndex1
              {
                OFFSET 7.75947 0.938293 5.60832
                CHANNELS 3 Zrotation Xrotation Yrotation
                JOINT lIndex2
                {
                  OFFSET 2.54057 -0.884171 1.56538
                  CHANNELS 3 Zrotation Xrotation Yrotation
                  End Site
                  {
                    OFFSET 1.62519 -0.234802 1.16502
                  }
                }
              }
              JOINT lMid1
              {
                OFFSET 8.24714 1.18213 3.41376
                CHANNELS 3 Zrotation Xrotation Yrotation
                JOINT lMid2
                {
                  OFFSET 3.10165 -0.590103 1.0647
                  CHANNELS 3 Zrotation Xrotation Yrotation
                  End Site
                  {
                    OFFSET 2.48547 -0.328903 0.83742
                  }
                }
              }
              JOINT lRing1
              {
                OFFSET 8.82822 0.546677 1.51678
                CHANNELS 3 Zrotation Xrotation Yrotation
                JOINT lRing2
                {
                  OFFSET 2.60934 -0.819778 -0.0198488
                  CHANNELS 3 Zrotation Xrotation Yrotation
                  End Site
                  {
                    OFFSET 2.33842 -0.294052 0.168128
                  }
                }
              }
              JOINT lPinky1
              {
                OFFSET 8.27202 -0.0477905 -0.4584
                CHANNELS 3 Zrotation Xrotation Yrotation
                JOINT lPinky2
                {
                  OFFSET 1.82734 -0.647385 -0.700984
                  CHANNELS 3 Zrotation Xrotation Yrotation
                  End Site
                  {
                    OFFSET 1.69225 -0.51767 -0.607171
                  }
                }
              }
            }
          }
        }
      }
    }
  }
  JOINT rButtock
  {
    OFFSET -8.77824 4.35084 1.2192
    CHANNELS 3 Zrotation Xrotation Yrotation
    JOINT rThigh
    {
      OFFSET 0 -1.70687 -2.19456
      CHANNELS 3 Zrotation Xrotation Yrotation
      JOINT rShin
      {
        OFFSET 0 -36.8199 0.73152
        CHANNELS 3 Zrotation Xrotation Yrotation
        JOINT rFoot
        {
          OFFSET 0.73152 -45.1104 -5.12064
          CHANNELS 3 Zrotation Xrotation Yrotation
          End Site
          {
            OFFSET -1.1221 -3.69964 12.103
          }
        }
      }
    }
  }
  JOINT lButtock
  {
    OFFSET 8.77824 4.35084 1.2192
    CHANNELS 3 Zrotation Xrotation Yrotation
    JOINT lThigh
    {
      OFFSET 0 -1.70687 -2.19456
      CHANNELS 3 Zrotation Xrotation Yrotation
      JOINT lShin
      {
        OFFSET 0 -36.8199 0.73152
        CHANNELS 3 Zrotation Xrotation Yrotation
        JOINT lFoot
        {
          OFFSET -0.73152 -45.1104 -5.12064
          CHANNELS 3 Zrotation Xrotation Yrotation
          End Site
          {
            OFFSET 1.1221 -3.69964 12.103
          }
        }
      }
    }
  }
}
MOTION
Frames:	4
Frame Time:	0.03333
-15.231193881481886 56.13088607788086 -37.60525928810239 -16.187206268310547 -49.218544006347656 10.80307388305664 1.5116244554519653 13.081865310668945 12.302112579345703 -1.332491397857666 -11.687644958496094 3.513094186782837 -1.5695432424545288 13.380202293395996 8.530548095703125 8.51928997039795 -23.767894744873047 18.76052474975586 -0.11184414476156235 -0.09694632142782211 0.00581993767991662 0.31740802526474 -0.004399303812533617 -0.01744774542748928 -0.16945064067840576 0.052815888077020645 -0.0073075806722044945 76.52924346923828 77.77739715576172 -10.265484809875488 -26.10504913330078 -46.02184295654297 95.51717376708984 -30.710601806640625 -77.71246337890625 -37.922245025634766 -0.014302548952400684 0.3176208734512329 0.15464136004447937 0.12749192118644714 0.046106237918138504 -0.03604331240057945 -0.16887615621089935 -0.04844510182738304 -0.03466266393661499 7.6749677658081055 5.611937999725342 0.516487181186676 -0.0018018203554674983 -0.010097946971654892 -0.017385445535182953 3.078489065170288 0.9344762563705444 0.0878194272518158 0.022122198715806007 -0.19734090566635132 -0.020297128707170486 10.47068977355957 0.8241440057754517 -0.000996657065115869 -0.0030438383109867573 -0.23420028388500214 0.04298945516347885 1.9085801839828491 -0.6346179842948914 -0.16612085700035095 0.08411756902933121 0.11822975426912308 -0.08922387659549713 -63.55191421508789 4.168054103851318 -39.18279266357422 27.809511184692383 -31.691768646240234 -70.090087890625 1.1289187669754028 27.880416870117188 -4.248505592346191 0.052121106535196304 0.05652691423892975 -0.2255234718322754 0.13707558810710907 6.630286225117743e-05 0.06229706481099129 -0.05159357562661171 -0.04774409532546997 -0.11553557962179184 -7.836580276489258 5.531347274780273 -0.5645305514335632 -0.08730220794677734 -0.06376999616622925 0.05907851830124855 -3.057068347930908 1.0661002397537231 -0.10811169445514679 -0.3115162253379822 0.052699483931064606 0.06624098867177963 -10.587371826171875 0.8302885890007019 -0.18784788250923157 -0.3081717789173126 -0.18146073818206787 -0.07101469486951828 -2.3686161041259766 -0.7469659447669983 0.1481410413980484 -0.09639114141464233 0.18383707106113434 0.07044871151447296 -16.25083351135254 -25.40328598022461 -21.18268394470215 -1.1879358291625977 71.06011962890625 3.5083441734313965 -10.72342300415039 -22.791688919067383 -24.303205490112305 -0.3481951355934143 0.25311973690986633 -0.0768490731716156 63.433616638183594 -46.6855354309082 55.58611297607422 2.969935655593872 71.9560317993164 -3.142406463623047 -0.5597987771034241 -0.14244958758354187 -1.8441535234451294
-15.310214646160603 56.06892704963684 -38.486549351364374 -15.913968086242676 -49.31450271606445 10.699676513671875 1.3435487747192383 13.095954895019531 12.278055191040039 -1.3229297399520874 -11.664276123046875 3.514486789703369 -1.5851281881332397 13.414534568786621 8.492698669433594 8.517292022705078 -23.772642135620117 18.713163375854492 -0.11025215685367584 -0.09403736144304276 -0.006099831312894821 0.32804644107818604 -0.011410296894609928 -0.01693677343428135 -0.1838625818490982 0.053101133555173874 -0.012969757430255413 77.38713836669922 77.66896057128906 -11.157638549804688 -26.10436248779297 -46.05448532104492 95.550537109375 -30.615798950195312 -77.6666259765625 -37.82901382446289 -0.008899327367544174 0.3171268403530121 0.15829798579216003 0.12897077202796936 0.03882118687033653 -0.04779047146439552 -0.17273449897766113 -0.05706438794732094 -0.02835908718407154 7.670649528503418 5.61618185043335 0.523409903049469 -0.013159697875380516 -0.005451750475913286 -0.016911428421735764 3.0817294120788574 0.947090208530426 0.08824317902326584 0.01771792396903038 -0.19216999411582947 -0.02445533685386181 10.47751522064209 0.8363473415374756 0.011182345449924469 0.01165049523115158 -0.24599680304527283 0.04135582968592644 1.9188504219055176 -0.6302692890167236 -0.16968540847301483 0.08928722888231277 0.11958464235067368 -0.07978305965662003 -63.5416145324707 4.076389789581299 -39.22951889038086 27.80905532836914 -31.57051658630371 -69.8959732055664 1.1160290241241455 27.959211349487305 -4.243563175201416 0.03752976655960083 0.04472406208515167 -0.22897380590438843 0.13930542767047882 -0.002108667977154255 0.059296563267707825 -0.04891819506883621 -0.04066523537039757 -0.1237180083990097 -7.859567165374756 5.535276412963867 -0.564980685710907 -0.09983465820550919 -0.06742028892040253 0.05494773015379906 -3.0561366081237793 1.0661745071411133 -0.1103995144367218 -0.30181625485420227 0.05265223607420921 0.06292351335287094 -10.597166061401367 0.8301827311515808 -0.1967543512582779 -0.3011757731437683 -0.17480045557022095 -0.06003597751259804 -2.372589349746704 -0.745461106300354 0.1492021381855011 -0.09346988052129745 0.1869000792503357 0.06329688429832458 -16.254364013671875 -25.664369583129883 -20.969921112060547 -1.2499220371246338 71.45820617675781 3.566884756088257 -10.766753196716309 -22.820575714111328 -24.314661026000977 -0.3590948283672333 0.24701270461082458 -0.07570697367191315 63.260108947753906 -46.69999313354492 55.4151611328125 2.928936004638672 71.86563110351562 -3.111722230911255 -0.558836817741394 -0.019597580656409264 -1.9323354959487915
-15.398209635168314 55.897367000579834 -39.34591570869088 -15.591903686523438 -49.30955505371094 10.862605094909668 1.2132031917572021 13.127158164978027 12.317684173583984 -1.2553350925445557 -11.6994047164917 3.5385940074920654 -1.5916136503219604 13.438959121704102 8.481417655944824 8.519006729125977 -23.864551544189453 18.708036422729492 -0.09831825643777847 -0.07328831404447556 -0.002363760955631733 0.32315295934677124 -0.02570093609392643 -0.01739385537803173 -0.1873568892478943 0.059891458600759506 -0.01633734256029129 75.24197387695312 77.88289642333984 -8.869359016418457 -26.120031356811523 -46.0285758972168 95.4903564453125 -29.898433685302734 -77.4465560913086 -37.10242462158203 0.001946910168044269 0.31690481305122375 0.16330143809318542 0.13535669445991516 0.023177530616521835 -0.04143018275499344 -0.16771267354488373 -0.07588902860879898 -0.025638028979301453 7.692612648010254 5.623167514801025 0.5158678889274597 -0.027694344520568848 -0.006123991217464209 -0.0071491664275527 3.069965362548828 0.9582812786102295 0.08843763917684555 0.01865582913160324 -0.1817960888147354 -0.01257662195712328 10.466428756713867 0.8287584781646729 0.029832029715180397 0.013791977427899837 -0.23731309175491333 0.04042352735996246 1.933980941772461 -0.6356669664382935 -0.16814929246902466 0.10965210199356079 0.11725519597530365 -0.07751227915287018 -63.41407012939453 4.36271333694458 -39.15707778930664 27.860212326049805 -31.786649703979492 -70.28533172607422 1.061988115310669 27.484981536865234 -4.121581077575684 0.02928592823445797 0.04849688336253166 -0.21872425079345703 0.16158096492290497 -2.4814957214402966e-05 0.052108246833086014 -0.05723647400736809 -0.030729569494724274 -0.11622738838195801 -7.889855861663818 5.55374002456665 -0.556804358959198 -0.10137569904327393 -0.07312674820423126 0.05404221639037132 -3.0524799823760986 1.0630998611450195 -0.10586217045783997 -0.2916582226753235 0.05428462475538254 0.0442010872066021 -10.590559005737305 0.8232734799385071 -0.19191165268421173 -0.27529793977737427 -0.1638088971376419 -0.06186267361044884 -2.3688390254974365 -0.745762288570404 0.15903377532958984 -0.11000771820545197 0.17117364704608917 0.058626893907785416 -16.495418548583984 -26.095548629760742 -21.05117416381836 -1.3534743785858154 72.18883514404297 3.6586380004882812 -10.795905113220215 -22.921842575073242 -24.33442497253418 -0.3572354018688202 0.2266436666250229 -0.08281855285167694 63.546142578125 -46.84295654296875 55.87898635864258 3.0324184894561768 72.21942901611328 -3.2046382427215576 -0.5350437164306641 -0.002467226702719927 -1.8700072765350342
-15.492032561451197 55.62891364097595 -40.15880646184087 -15.491739273071289 -49.155479431152344 10.95076847076416 1.2005423307418823 13.121760368347168 12.341808319091797 -1.159844994544983 -11.73629093170166 3.5527050495147705 -1.58966064453125 13.430822372436523 8.473418235778809 8.501526832580566 -23.95433235168457 18.668081283569336 -0.07376459240913391 -0.04889409616589546 0.005666172131896019 0.3210049569606781 -0.02467162162065506 -0.006298774853348732 -0.19290471076965332 0.06546797603368759 -0.01218083593994379 72.50334930419922 78.00843048095703 -5.986914157867432 -26.175247192382812 -45.87201690673828 95.18321228027344 -28.972373962402344 -77.15003204345703 -36.14696502685547 0.009574921801686287 0.32088735699653625 0.16741101443767548 0.14745935797691345 0.018820293247699738 -0.04317406564950943 -0.15258288383483887 -0.09270615130662918 -0.026984795928001404 7.721302032470703 5.625906467437744 0.5026308298110962 -0.043295666575431824 -0.008128691464662552 -0.0007954799220897257 3.0713725090026855 0.9653010964393616 0.07721216231584549 0.024530576542019844 -0.16310818493366241 0.008800803683698177 10.448809623718262 0.8218733072280884 0.05745760351419449 0.008418870158493519 -0.23866814374923706 0.04004879668354988 1.9504797458648682 -0.6528410911560059 -0.16762469708919525 0.12248943001031876 0.11223039031028748 -0.07627886533737183 -63.23374938964844 4.612450122833252 -39.12034225463867 27.889572143554688 -31.914033889770508 -70.53121185302734 1.0251891613006592 27.080581665039062 -4.033088207244873 0.017848696559667587 0.05687103420495987 -0.20940028131008148 0.18322160840034485 0.004757789894938469 0.041866425424814224 -0.06611574441194534 -0.028616443276405334 -0.10737989097833633 -7.912046432495117 5.570773124694824 -0.5498602390289307 -0.09967955201864243 -0.08966243267059326 0.053507689386606216 -3.051334857940674 1.0656225681304932 -0.09710747748613358 -0.27338719367980957 0.06735476851463318 0.026477675884962082 -10.568225860595703 0.8269402384757996 -0.18252258002758026 -0.24573026597499847 -0.15420742332935333 -0.060385946184396744 -2.361539840698242 -0.7482240200042725 0.1602819263935089 -0.1301335096359253 0.14384780824184418 0.06220493093132973 -16.75480842590332 -26.292715072631836 -21.188457489013672 -1.3638182878494263 72.60142517089844 3.6610026359558105 -10.796592712402344 -22.987625122070312 -24.384601593017578 -0.3527010977268219 0.20200541615486145 -0.08456450700759888 63.97174072265625 -47.006690979003906 56.54079818725586 3.164649724960327 72.60198211669922 -3.302391529083252 -0.5242077708244324 -0.012923379428684711 -1.755533218383789
